<svg width="30" height="30" viewBox="0 0 30 30" fill="none" xmlns="http://www.w3.org/2000/svg">
<path d="M17.5 3.42501L25 10C25.3954 10.3537 25.7114 10.7873 25.9268 11.2721C26.1423 11.7569 26.2525 12.282 26.25 12.8125V23.75C26.25 24.7446 25.8549 25.6984 25.1516 26.4017C24.4484 27.1049 23.4946 27.5 22.5 27.5H7.5C6.50543 27.5 5.55161 27.1049 4.84835 26.4017C4.14508 25.6984 3.75 24.7446 3.75 23.75V12.825C3.74576 12.2924 3.85505 11.7649 4.07059 11.2778C4.28612 10.7907 4.60296 10.3551 5 10L12.5 3.42501C13.1875 2.81006 14.0776 2.47009 15 2.47009C15.9224 2.47009 16.8125 2.81006 17.5 3.42501Z" fill="black"/>
<path d="M12.5 25H17.5V18.75C17.5 18.4185 17.3683 18.1005 17.1339 17.8661C16.8995 17.6317 16.5815 17.5 16.25 17.5H13.75C13.4185 17.5 13.1005 17.6317 12.8661 17.8661C12.6317 18.1005 12.5 18.4185 12.5 18.75V25Z" fill="white"/>
</svg>
