<svg width="28" height="28" viewBox="0 0 28 28" fill="none" xmlns="http://www.w3.org/2000/svg">
<path d="M24.5816 19.635L22.1666 17.1617C21.6472 16.6679 20.9919 16.3407 20.285 16.2222C19.5782 16.1037 18.8521 16.1993 18.1999 16.4967L17.1499 15.4467C18.3873 13.7934 18.9523 11.7328 18.7314 9.67963C18.5105 7.62649 17.52 5.73325 15.9593 4.38106C14.3986 3.02886 12.3836 2.31811 10.3199 2.39187C8.25621 2.46564 6.29709 3.31845 4.83691 4.77862C3.37674 6.2388 2.52393 8.19792 2.45016 10.2616C2.3764 12.3253 3.08715 14.3403 4.43935 15.901C5.79154 17.4617 7.68478 18.4522 9.73792 18.6731C11.7911 18.894 13.8517 18.329 15.5049 17.0917L16.5433 18.13C16.2109 18.7829 16.0918 19.5237 16.2027 20.2479C16.3136 20.9721 16.649 21.6432 17.1616 22.1667L19.6349 24.64C20.2912 25.2954 21.1808 25.6636 22.1083 25.6636C23.0358 25.6636 23.9254 25.2954 24.5816 24.64C24.915 24.314 25.1799 23.9248 25.3607 23.495C25.5415 23.0653 25.6347 22.6037 25.6347 22.1375C25.6347 21.6713 25.5415 21.2097 25.3607 20.78C25.1799 20.3502 24.915 19.961 24.5816 19.635ZM14.6883 14.6883C13.8719 15.5027 12.8325 16.0568 11.7013 16.2807C10.5702 16.5045 9.39803 16.3882 8.33298 15.9462C7.26794 15.5043 6.35777 14.7566 5.71745 13.7976C5.07712 12.8387 4.73538 11.7114 4.73538 10.5583C4.73538 9.40523 5.07712 8.278 5.71745 7.31903C6.35777 6.36007 7.26794 5.61238 8.33298 5.17044C9.39803 4.7285 10.5702 4.61212 11.7013 4.836C12.8325 5.05989 13.8719 5.614 14.6883 6.42833C15.2315 6.97019 15.6625 7.61391 15.9566 8.3226C16.2507 9.03129 16.402 9.79104 16.402 10.5583C16.402 11.3256 16.2507 12.0854 15.9566 12.7941C15.6625 13.5027 15.2315 14.1465 14.6883 14.6883Z" fill="black"/>
<path d="M14 9C14 10.6569 12.6569 12 11 12C9.34315 12 8 10.6569 8 9C8 7.34315 9.34315 6 11 6C12.6569 6 14 7.34315 14 9Z" fill="black"/>
</svg>
