<svg width="30" height="30" viewBox="0 0 30 30" fill="none" xmlns="http://www.w3.org/2000/svg">
<mask id="mask0" mask-type="alpha" maskUnits="userSpaceOnUse" x="7" y="17" width="16" height="8">
<path fill-rule="evenodd" clip-rule="evenodd" d="M7 17.4961H22.8399V24.8701H7V17.4961Z" fill="white"/>
</mask>
<g mask="url(#mask0)">
<path fill-rule="evenodd" clip-rule="evenodd" d="M14.9209 18.9961C10.6599 18.9961 8.49988 19.7281 8.49988 21.1731C8.49988 22.6311 10.6599 23.3701 14.9209 23.3701C19.1809 23.3701 21.3399 22.6381 21.3399 21.1931C21.3399 19.7351 19.1809 18.9961 14.9209 18.9961M14.9209 24.8701C12.9619 24.8701 6.99988 24.8701 6.99988 21.1731C6.99988 17.8771 11.5209 17.4961 14.9209 17.4961C16.8799 17.4961 22.8399 17.4961 22.8399 21.1931C22.8399 24.4891 18.3199 24.8701 14.9209 24.8701" fill="black"/>
</g>
<mask id="mask1" mask-type="alpha" maskUnits="userSpaceOnUse" x="9" y="5" width="12" height="11">
<path fill-rule="evenodd" clip-rule="evenodd" d="M9.60986 5.00012H20.2299V15.6187H9.60986V5.00012Z" fill="white"/>
</mask>
<g mask="url(#mask1)">
<path fill-rule="evenodd" clip-rule="evenodd" d="M14.9209 6.42769C12.7799 6.42769 11.0379 8.16869 11.0379 10.3097C11.0309 12.4437 12.7599 14.1837 14.8919 14.1917L14.9209 14.9057V14.1917C17.0609 14.1917 18.8019 12.4497 18.8019 10.3097C18.8019 8.16869 17.0609 6.42769 14.9209 6.42769M14.9209 15.6187H14.8889C11.9669 15.6097 9.59989 13.2267 9.60989 10.3067C9.60989 7.3817 11.9919 4.99969 14.9209 4.99969C17.8489 4.99969 20.2299 7.38169 20.2299 10.3097C20.2299 13.2377 17.8489 15.6187 14.9209 15.6187" fill="black"/>
</g>
</svg>
