<svg width="30" height="30" viewBox="0 0 30 30" fill="none" xmlns="http://www.w3.org/2000/svg">
<path d="M25 10L17.5 3.42501C16.8125 2.81006 15.9224 2.47009 15 2.47009C14.0776 2.47009 13.1876 2.81006 12.5 3.42501L5.00003 10C4.60299 10.3551 4.28615 10.7907 4.07062 11.2778C3.85508 11.7649 3.74579 12.2924 3.75003 12.825V23.75C3.75003 24.7446 4.14512 25.6984 4.84838 26.4017C5.55164 27.1049 6.50547 27.5 7.50003 27.5H22.5C23.4946 27.5 24.4484 27.1049 25.1517 26.4017C25.8549 25.6984 26.25 24.7446 26.25 23.75V12.8125C26.2525 12.282 26.1423 11.7569 25.9269 11.2721C25.7114 10.7873 25.3955 10.3537 25 10ZM17.5 25H12.5V18.75C12.5 18.4185 12.6317 18.1005 12.8661 17.8661C13.1006 17.6317 13.4185 17.5 13.75 17.5H16.25C16.5815 17.5 16.8995 17.6317 17.1339 17.8661C17.3683 18.1005 17.5 18.4185 17.5 18.75V25ZM23.75 23.75C23.75 24.0815 23.6183 24.3995 23.3839 24.6339C23.1495 24.8683 22.8315 25 22.5 25H20V18.75C20 17.7554 19.6049 16.8016 18.9017 16.0984C18.1984 15.3951 17.2446 15 16.25 15H13.75C12.7555 15 11.8016 15.3951 11.0984 16.0984C10.3951 16.8016 10 17.7554 10 18.75V25H7.50003C7.16851 25 6.85056 24.8683 6.61614 24.6339C6.38172 24.3995 6.25003 24.0815 6.25003 23.75V12.8125C6.25025 12.635 6.28827 12.4596 6.36155 12.298C6.43483 12.1363 6.54169 11.9921 6.67503 11.875L14.175 5.31251C14.4031 5.11211 14.6964 5.00159 15 5.00159C15.3037 5.00159 15.5969 5.11211 15.825 5.31251L23.325 11.875C23.4584 11.9921 23.5652 12.1363 23.6385 12.298C23.7118 12.4596 23.7498 12.635 23.75 12.8125V23.75Z" fill="black"/>
</svg>
