<svg width="100" height="100" viewBox="0 0 100 100" fill="none" xmlns="http://www.w3.org/2000/svg">
<path d="M85.875 79.9585C88.4862 76.4583 90.2782 72.4164 91.1186 68.1311C91.959 63.8458 91.8264 59.4265 90.7306 55.1992C89.6348 50.972 87.6037 47.0448 84.7874 43.7074C81.971 40.3701 78.4411 37.7077 74.4583 35.9168C73.5908 30.9256 71.597 26.1977 68.6284 22.0925C65.6598 17.9873 61.7946 14.6128 57.3264 12.2253C52.8581 9.8378 47.9045 8.50018 42.8419 8.31407C37.7792 8.12797 32.7407 9.09827 28.1093 11.1513C23.4778 13.2042 19.3752 16.2859 16.1133 20.1621C12.8513 24.0382 10.5158 28.6069 9.2841 33.521C8.05245 38.4351 7.9571 43.5652 9.00528 48.5217C10.0535 53.4781 12.2176 58.1305 15.3333 62.1252L9.54163 67.8752C8.96347 68.4611 8.57182 69.2052 8.4161 70.0134C8.26037 70.8217 8.34755 71.658 8.66663 72.4168C8.97921 73.1777 9.51004 73.8291 10.1922 74.2888C10.8744 74.7486 11.6774 74.9961 12.5 75.0002H36.2083C38.5693 79.9777 42.2918 84.1847 46.9447 87.1343C51.5977 90.0839 56.9909 91.6554 62.5 91.6668H87.5C88.3226 91.6627 89.1255 91.4152 89.8077 90.9555C90.4899 90.4958 91.0207 89.8444 91.3333 89.0835C91.6524 88.3247 91.7395 87.4884 91.5838 86.6801C91.4281 85.8718 91.0364 85.1278 90.4583 84.5418L85.875 79.9585ZM33.3333 62.5002C33.339 63.8955 33.4504 65.2884 33.6666 66.6668H22.5416L24 65.2502C24.3905 64.8628 24.7005 64.402 24.912 63.8942C25.1235 63.3865 25.2325 62.8419 25.2325 62.2918C25.2325 61.7418 25.1235 61.1972 24.912 60.6894C24.7005 60.1817 24.3905 59.7208 24 59.3335C21.6648 57.0239 19.8135 54.272 18.5544 51.2386C17.2952 48.2052 16.6535 44.9512 16.6666 41.6668C16.6666 35.0364 19.3006 28.6776 23.989 23.9892C28.6774 19.3008 35.0362 16.6668 41.6666 16.6668C46.8403 16.6357 51.8937 18.2268 56.1163 21.2163C60.339 24.2058 63.5186 28.4434 65.2083 33.3335C64.2916 33.3335 63.4166 33.3335 62.5 33.3335C54.7645 33.3335 47.3458 36.4064 41.876 41.8762C36.4062 47.346 33.3333 54.7647 33.3333 62.5002ZM77.25 83.3335L77.4583 83.5418H62.5C57.6805 83.5332 53.0132 81.854 49.293 78.7902C45.5727 75.7263 43.0298 71.4675 42.0974 66.7391C41.165 62.0107 41.9008 57.1053 44.1794 52.8586C46.4581 48.6118 50.1386 45.2864 54.5939 43.4489C59.0493 41.6114 64.004 41.3754 68.6138 42.7811C73.2237 44.1869 77.2036 47.1474 79.8756 51.1583C82.5475 55.1692 83.7462 59.9825 83.2675 64.7781C82.7887 69.5737 80.6621 74.0549 77.25 77.4585C76.4649 78.2278 76.0156 79.2761 76 80.3752C76.0022 80.9265 76.1139 81.4718 76.3285 81.9796C76.5431 82.4874 76.8563 82.9476 77.25 83.3335V83.3335Z" fill="#7F37A0"/>
</svg>
